<svg xmlns="http://www.w3.org/2000/svg" xmlns:xlink="http://www.w3.org/1999/xlink" xmlns:serif="http://www.serif.com/" viewBox="0 0 513 640" version="1.1" xml:space="preserve" style="" x="0px" y="0px" fill-rule="evenodd" clip-rule="evenodd" stroke-linejoin="round" stroke-miterlimit="2"><rect x="0.551" y="0" width="512" height="512" style="" fill="none"/><path d="M256.5,0c-141.29,0 -256,114.71 -256,256c0,141.29 114.71,256 256,256c141.29,0 256,-114.71 256,-256c0,-141.29 -114.71,-256 -256,-256Zm0,18c131.356,0 238,106.644 238,238c0,131.356 -106.644,238 -238,238c-131.356,0 -238,-106.644 -238,-238c0,-131.356 106.644,-238 238,-238Zm-1.505,402.184l0.003,0c20.004,0 36.221,-16.217 36.221,-36.221l0,-0.002c0,-20.005 -16.217,-36.222 -36.221,-36.222l-0.003,0c-20.004,0 -36.221,16.217 -36.221,36.222l0,0.002c0,20.004 16.217,36.221 36.221,36.221Zm0,-18c-10.063,0 -18.221,-8.158 -18.221,-18.221l0,-0.002c0,-10.064 8.158,-18.222 18.221,-18.222l0.003,0c10.063,0 18.221,8.158 18.221,18.222l0,0.002c0,10.063 -8.158,18.221 -18.221,18.221l-0.003,0Zm-64.721,-196.936c-0.755,-0.01 -3.22,-0.174 -3.696,-0.231c-10.193,-1.211 -19.325,-6.878 -24.936,-15.472c-5.611,-8.595 -7.125,-19.235 -4.163,-28.958c5.548,-18.586 14.915,-33.492 27.828,-44.889c17.682,-15.605 40.893,-23.882 69.956,-23.882c30.631,0 54.887,8.845 73.123,25.514c19.159,17.513 28.611,38.75 28.611,63.597c0,14.543 -3.448,27.939 -10.265,40.209c-6.022,10.84 -17.56,24.233 -35.084,39.751c-9.038,8.01 -15.072,13.785 -17.844,17.585c-1.945,2.665 -3.341,5.748 -4.278,9.206c-0.681,2.515 -1.116,5.957 -1.461,10.305c-0.011,0.136 -0.023,0.271 -0.037,0.407c-1.606,15.724 -13.856,28.005 -29.159,29.98c-0.682,0.088 -4.362,0.336 -4.362,0.336c-9.286,0.001 -18.162,-3.826 -24.537,-10.578c-6.375,-6.752 -9.685,-15.833 -9.169,-24.745c0.047,-1.242 0.098,-2.253 0.151,-2.929c0.824,-10.643 2.924,-20.105 6.103,-28.265c3.242,-8.547 8.385,-17.222 15.651,-25.971c4.628,-5.528 12.896,-13.649 24.915,-24.254c9.036,-7.973 15.175,-14.076 17.881,-18.811c1.759,-3.079 2.606,-6.448 2.606,-10.092c0,-7.58 -3.187,-14.138 -9.107,-19.877c-6.3,-6.108 -14.062,-9.057 -23.204,-9.057c-8.69,0 -16.022,2.508 -21.84,7.948c-4.585,4.287 -7.721,10.503 -10.031,18.432c-4.467,14.972 -18.32,24.952 -33.652,24.741Zm49.446,95.121c0.136,0.37 1.861,3.837 3.339,5.402c2.974,3.15 7.115,4.935 11.448,4.935c0,0 0.001,0 0.002,-0.047c8.05,0 14.794,-6.091 15.612,-14.099c0.455,-5.739 1.132,-10.268 2.031,-13.587c1.541,-5.689 3.911,-10.726 7.111,-15.111c3.2,-4.386 10.015,-11.201 20.445,-20.445c15.526,-13.748 25.956,-25.423 31.289,-35.023c5.334,-9.6 8,-20.089 8,-31.467c0,-19.674 -7.585,-36.444 -22.755,-50.311c-15.171,-13.867 -35.497,-20.8 -60.979,-20.8c-24.059,0 -43.407,6.459 -58.045,19.378c-10.491,9.259 -17.984,21.442 -22.492,36.542c-1.438,4.721 -0.71,9.836 1.988,13.968c2.698,4.132 7.088,6.857 11.989,7.439c0.015,0.002 0.031,0.004 0.049,-0.007c8.044,0.957 15.609,-4.013 17.925,-11.776c3.315,-11.379 8.31,-20.19 14.986,-26.433c9.126,-8.533 20.504,-12.8 34.134,-12.8c14.103,0 26.015,4.711 35.733,14.134c9.719,9.422 14.578,20.355 14.578,32.8c0,6.874 -1.659,13.215 -4.978,19.022c-3.318,5.808 -10.518,13.6 -21.6,23.378c-11.081,9.778 -18.756,17.215 -23.022,22.311c-5.808,6.993 -10.015,13.927 -12.623,20.801c-2.65,6.802 -4.312,14.559 -4.987,23.271c-0.04,0.511 -0.074,1.276 -0.109,2.214c-0.125,2.168 0.2,4.313 0.931,6.311Z"/><text x="0" y="527" fill="#000000" font-size="5px" font-weight="bold" font-family="'Helvetica Neue', Helvetica, Arial-Unicode, Arial, Sans-serif">Created by alimasykurm</text><text x="0" y="532" fill="#000000" font-size="5px" font-weight="bold" font-family="'Helvetica Neue', Helvetica, Arial-Unicode, Arial, Sans-serif">from the Noun Project</text></svg>